HIERARCHY
ROOT Hips
{
	OFFSET 0.00000 0.00000 0.00000
	CHANNELS 6 Xposition Yposition Zposition Zrotation Yrotation Xrotation 
	JOINT LHipJoint
	{
		OFFSET 0 0 0
		CHANNELS 3 Zrotation Yrotation Xrotation
		JOINT LeftUpLeg
		{
			OFFSET 1.36443 -1.53315 0.80540
			CHANNELS 3 Zrotation Yrotation Xrotation
			JOINT LeftLeg
			{
				OFFSET 2.27494 -6.25036 0.00000
				CHANNELS 3 Zrotation Yrotation Xrotation
				JOINT LeftFoot
				{
					OFFSET 2.17461 -5.97470 0.00000
					CHANNELS 3 Zrotation Yrotation Xrotation
					JOINT LeftToeBase
					{
						OFFSET 0.22144 -0.60841 2.08966
						CHANNELS 3 Zrotation Yrotation Xrotation
						End Site
						{
							OFFSET 0.00000 -0.00000 1.09206
						}
					}
				}
			}
		}
	}
	JOINT RHipJoint
	{
		OFFSET 0 0 0
		CHANNELS 3 Zrotation Yrotation Xrotation
		JOINT RightUpLeg
		{
			OFFSET -1.29957 -1.53315 0.80539
			CHANNELS 3 Zrotation Yrotation Xrotation
			JOINT RightLeg
			{
				OFFSET -2.23917 -6.15209 0.00000
				CHANNELS 3 Zrotation Yrotation Xrotation
				JOINT RightFoot
				{
					OFFSET -2.18029 -5.99030 0.00000
					CHANNELS 3 Zrotation Yrotation Xrotation
					JOINT RightToeBase
					{
						OFFSET -0.22354 -0.61416 1.89975
						CHANNELS 3 Zrotation Yrotation Xrotation
						End Site
						{
							OFFSET -0.00000 -0.00000 1.00221
						}
					}
				}
			}
		}
	}
	JOINT LowerBack
	{
		OFFSET 0 0 0
		CHANNELS 3 Zrotation Yrotation Xrotation
		JOINT Spine
		{
			OFFSET -0.04725 2.10352 -0.01215
			CHANNELS 3 Zrotation Yrotation Xrotation
			JOINT Spine1
			{
				OFFSET 0.04471 2.09612 -0.07192
				CHANNELS 3 Zrotation Yrotation Xrotation
				JOINT Neck
				{
					OFFSET 0 0 0
					CHANNELS 3 Zrotation Yrotation Xrotation
					JOINT Neck1
					{
						OFFSET -0.01586 1.38087 0.11506
						CHANNELS 3 Zrotation Yrotation Xrotation
						JOINT Head
						{
							OFFSET -0.01055 1.38869 -0.12115
							CHANNELS 3 Zrotation Yrotation Xrotation
							End Site
							{
								OFFSET -0.00310 1.39537 -0.05348
							}
						}
					}
				}
				JOINT LeftShoulder
				{
					OFFSET 0 0 0
					CHANNELS 3 Zrotation Yrotation Xrotation
					JOINT LeftArm
					{
						OFFSET 2.71932 0.62535 0.37316
						CHANNELS 3 Zrotation Yrotation Xrotation
						JOINT LeftForeArm
						{
							OFFSET 4.47366 -0.00000 0.00000
							CHANNELS 3 Zrotation Yrotation Xrotation
							JOINT LeftHand
							{
								OFFSET 3.19948 -0.00000 -0.00000
								CHANNELS 3 Zrotation Yrotation Xrotation
								JOINT LeftFingerBase
								{
									OFFSET 0 0 0
									CHANNELS 3 Zrotation Yrotation Xrotation
									JOINT LeftHandIndex1
									{
										OFFSET 0.49267 -0.00000 -0.00000
										CHANNELS 3 Zrotation Yrotation Xrotation
										End Site
										{
											OFFSET 0.39720 -0.00000 -0.00000
										}
									}
								}
								JOINT LThumb
								{
									OFFSET 0 0 0
									CHANNELS 3 Zrotation Yrotation Xrotation
									End Site
									{
										OFFSET 0.40327 -0.00000 0.40327
									}
								}
							}
						}
					}
				}
				JOINT RightShoulder
				{
					OFFSET 0 0 0
					CHANNELS 3 Zrotation Yrotation Xrotation
					JOINT RightArm
					{
						OFFSET -2.97334 0.70851 0.47631
						CHANNELS 3 Zrotation Yrotation Xrotation
						JOINT RightForeArm
						{
							OFFSET -4.32690 -0.00000 -0.00000
							CHANNELS 3 Zrotation Yrotation Xrotation
							JOINT RightHand
							{
								OFFSET -3.18960 -0.00000 0.00000
								CHANNELS 3 Zrotation Yrotation Xrotation
								JOINT RightFingerBase
								{
									OFFSET 0 0 0
									CHANNELS 3 Zrotation Yrotation Xrotation
									JOINT RightHandIndex1
									{
										OFFSET -0.46450 -0.00000 -0.00000
										CHANNELS 3 Zrotation Yrotation Xrotation
										End Site
										{
											OFFSET -0.37449 -0.00000 -0.00000
										}
									}
								}
								JOINT RThumb
								{
									OFFSET 0 0 0
									CHANNELS 3 Zrotation Yrotation Xrotation
									End Site
									{
										OFFSET -0.38021 -0.00000 0.38021
									}
								}
							}
						}
					}
				}
			}
		}
	}
}
MOTION
Frames: 11
Frame Time: .0083333
9.0195 15.1486 12.0821 0 0 0 0 0 0 -21 0 0 0 0 0 0 0 0 0 0 0 0 0 0 21 0 0 0 0 0 0 0 0 0 0 0 0 0 0 0 0 0 0 0 0 0 0 -16 0 0 21 0 0 11 0 0 0 -8 0 0 0 0 0 0 0 0 0 0 0 0 0 0 0 0 0 0 0 0 8 0 0 0 0 0 0 0 0 0 0 0 0 0 0 0 0 0
9.0195 15.1486 12.0821 3.5339 -6.5180 5.8089 0.0000 0.0000 0.0000 -15.7761 -6.3115 -15.7542 3.9263 12.0617 35.9504 1.2733 17.1825 -33.4183 0.2414 -3.1616 -8.7291 0.0000 0.0000 0.0000 9.1235 24.5362 -13.0911 -4.2518 -12.4881 37.4814 -0.0075 -24.1396 -34.0076 -0.0061 -0.5056 1.3893 -4.6633 -2.2838 -6.5168 3.5872 -2.8338 -0.3409 6.0973 -1.5257 3.7169 -8.4562 -7.9171 -9.3358 21.7526 -10.5998 -0.5615 7.4185 -4.7504 3.1505 0.0000 0.0000 0.0000 -86.1955 3.1328 52.1739 17.8608 -27.9785 -4.4837 -0.0000 0.0000 -13.7163 28.1577 6.2593 3.3398 -7.1250 0.0000 -0.0000 1.2068 37.0688 -0.2355 0.0000 0.0000 0.0000 81.2612 0.2986 26.6078 -13.0996 21.4329 -2.4896 0.0000 0.0000 10.7815 -10.5006 -33.2340 5.8004 7.1250 -0.0000 -0.0000 26.1614 -61.7424 -11.0733
9.0150 15.1508 12.0870 3.4918 -6.5092 5.7957 0.0000 0.0000 0.0000 -15.7083 -6.2454 -15.7315 3.9262 12.0615 35.9499 1.2935 17.0410 -33.4002 0.2333 -3.1086 -8.5813 0.0000 0.0000 0.0000 9.2033 24.4512 -13.0757 -4.2509 -12.4871 37.4775 -0.0096 -24.1036 -33.9711 -0.0057 -0.4854 1.3339 -4.6493 -2.3333 -6.4941 3.6014 -2.9023 -0.3545 6.0978 -1.5589 3.6997 -8.3411 -8.0731 -9.3032 21.3343 -10.8190 -0.4533 7.2415 -4.8642 3.1714 0.0000 -0.0000 0.0000 -86.1649 3.1107 52.0291 17.8189 -27.9247 -4.4641 -0.0000 0.0000 -13.7791 28.2365 6.0566 3.2430 -7.1250 0.0000 -0.0000 1.2799 36.8445 -0.2568 0.0000 -0.0000 0.0000 81.3172 0.2584 26.9465 -13.1311 21.4791 -2.5011 0.0000 0.0000 10.7685 -10.7400 -33.0480 5.9055 7.1250 -0.0000 -0.0000 25.7330 -61.6372 -10.8141
9.0099 15.1527 12.0925 3.4766 -6.5077 5.7228 0.0000 0.0000 0.0000 -15.6761 -6.1975 -15.6314 3.9274 12.0632 35.9557 1.3111 16.9262 -33.3934 0.2197 -3.0171 -8.3264 0.0000 0.0000 0.0000 9.2915 24.4082 -12.9491 -4.2459 -12.4806 37.4539 -0.0482 -24.0063 -34.0673 -0.0052 -0.4663 1.2813 -4.6840 -2.3645 -6.4419 3.6074 -2.9437 -0.3329 6.1209 -1.5809 3.7010 -8.3040 -8.1836 -9.1048 21.0646 -10.9542 -0.5150 7.1419 -4.9515 3.1172 0.0000 -0.0000 0.0000 -86.0985 3.1016 51.9748 17.8225 -27.9292 -4.4658 -0.0000 0.0000 -13.7785 28.4621 5.5081 2.9786 -7.1250 0.0000 -0.0000 1.4848 36.2360 -0.3200 0.0000 -0.0000 0.0000 81.3829 0.3162 27.1502 -13.1223 21.4662 -2.4979 0.0000 0.0000 10.8678 -11.1501 -32.7420 6.0850 7.1250 -0.0000 -0.0000 25.0164 -61.4661 -10.3896
9.0065 15.1537 12.0961 3.4507 -6.5298 5.6966 0.0000 0.0000 0.0000 -15.6469 -6.2530 -15.5569 3.9279 12.0639 35.9584 1.2977 17.0152 -33.3997 0.2207 -3.0242 -8.3460 0.0000 0.0000 0.0000 9.3323 24.3151 -12.9292 -4.2425 -12.4763 37.4386 -0.0913 -23.8231 -34.0753 -0.0070 -0.5403 1.4846 -4.6979 -2.3863 -6.4156 3.6346 -2.9739 -0.3285 6.1553 -1.5967 3.6974 -8.4591 -8.2440 -8.5760 20.9650 -10.9740 -0.8892 7.1557 -5.0121 2.9229 -0.0000 0.0000 0.0000 -86.0837 3.1317 51.8963 17.8401 -27.9519 -4.4740 -0.0000 0.0000 -13.6138 28.7481 4.9716 2.7218 -7.1250 0.0000 -0.0000 1.7351 35.6416 -0.3992 -0.0000 0.0000 0.0000 81.4026 0.3836 27.2634 -13.1221 21.4659 -2.4978 0.0000 0.0000 10.9570 -11.1229 -32.7603 6.0728 7.1250 -0.0000 -0.0000 25.0618 -61.4756 -10.4154
9.0060 15.1564 12.0978 3.3853 -6.5551 5.7662 0.0000 0.0000 0.0000 -15.5794 -6.3571 -15.5721 3.9278 12.0637 35.9575 1.2960 17.0993 -33.4707 0.2196 -3.0169 -8.3258 0.0000 0.0000 0.0000 9.3480 24.2035 -13.0670 -4.2413 -12.4748 37.4328 -0.1170 -23.6627 -34.0128 -0.0059 -0.4960 1.3629 -4.6338 -2.4167 -6.4235 3.6841 -3.0204 -0.3944 6.1668 -1.6160 3.6392 -8.6521 -8.4224 -8.4207 20.7170 -11.2097 -0.7790 7.0897 -5.1365 2.9556 0.0000 -0.0000 0.0000 -86.1230 3.1990 51.8001 17.8455 -27.9589 -4.4766 -0.0000 0.0000 -13.5411 28.7439 4.9120 2.6889 -7.1250 0.0000 -0.0000 1.7324 35.5736 -0.4014 0.0000 -0.0000 0.0000 81.3827 0.3552 27.3608 -13.1471 21.5023 -2.5069 0.0000 0.0000 10.9806 -10.9201 -32.9934 5.9975 7.1250 -0.0000 -0.0000 25.4926 -61.6333 -10.7032
9.0056 15.1578 12.0997 3.3885 -6.6049 5.8234 0.0000 0.0000 0.0000 -15.5848 -6.3549 -15.5997 3.9279 12.0638 35.9582 1.3331 16.9746 -33.5684 0.2027 -2.8991 -7.9980 0.0000 0.0000 0.0000 9.3060 24.1563 -13.1801 -4.2414 -12.4749 37.4334 -0.0930 -23.6701 -33.8803 -0.0037 -0.3908 1.0737 -4.6446 -2.4470 -6.4329 3.7259 -3.0610 -0.4562 6.2137 -1.6339 3.5887 -8.8655 -8.7798 -8.8373 20.2627 -11.7491 -0.0430 6.9023 -5.3543 3.2970 -0.0000 -0.0000 0.0000 -86.1855 3.1989 51.7885 17.8318 -27.9413 -4.4702 -0.0000 0.0000 -13.6718 28.6103 5.0277 2.7368 -7.1250 0.0000 -0.0000 1.6188 35.6985 -0.3701 -0.0000 -0.0000 0.0000 81.3169 0.3231 27.5562 -13.1897 21.5646 -2.5226 0.0000 0.0000 10.8659 -10.7664 -33.1377 5.9344 7.1250 -0.0000 -0.0000 25.7906 -61.7231 -10.8927
9.0036 15.1545 12.1031 3.4420 -6.6939 5.7991 0.0000 0.0000 0.0000 -15.6485 -6.2634 -15.5788 3.9294 12.0659 35.9656 1.3380 17.0137 -33.6344 0.2108 -2.9561 -8.1565 0.0000 0.0000 0.0000 9.2621 24.1683 -13.1732 -4.2411 -12.4745 37.4318 -0.0293 -23.8017 -33.6777 -0.0033 -0.3731 1.0251 -4.7461 -2.4984 -6.4174 3.7785 -3.1251 -0.4537 6.3214 -1.6688 3.6005 -9.2274 -9.1387 -9.0062 19.8865 -12.2357 0.3840 6.7795 -5.5754 3.5135 -0.0000 0.0000 0.0000 -86.3001 3.0890 51.7968 17.7368 -27.8188 -4.4257 -0.0000 0.0000 -13.8732 28.7533 4.8765 2.6706 -7.1250 0.0000 -0.0000 1.7409 35.5337 -0.4051 -0.0000 0.0000 0.0000 81.1863 0.3941 27.9440 -13.2309 21.6246 -2.5377 0.0000 0.0000 10.6656 -10.7841 -33.2120 5.9561 7.1250 -0.0000 -0.0000 25.8431 -61.7933 -10.9596
9.0015 15.1529 12.1063 3.4022 -6.7894 5.7864 0.0000 0.0000 0.0000 -15.6124 -6.1883 -15.5682 3.9335 12.0714 35.9849 1.3223 17.1649 -33.6876 0.2334 -3.1093 -8.5833 0.0000 0.0000 0.0000 9.3031 24.1213 -13.1994 -4.2380 -12.4706 37.4177 0.0068 -23.8143 -33.4779 -0.0036 -0.3895 1.0702 -4.7599 -2.5509 -6.4271 3.8552 -3.1973 -0.4383 6.4026 -1.7077 3.6383 -9.5477 -9.3790 -8.4828 19.5538 -12.4911 0.0899 6.7232 -5.7517 3.3693 0.0000 0.0000 0.0000 -86.4232 2.9381 51.7952 17.5856 -27.6233 -4.3554 -0.0000 0.0000 -14.0528 28.9272 4.6957 2.5904 -7.1250 0.0000 -0.0000 1.8885 35.3360 -0.4485 0.0000 0.0000 0.0000 81.0603 0.4995 28.2860 -13.2422 21.6410 -2.5419 0.0000 0.0000 10.5063 -10.7043 -33.4001 5.9407 7.1250 -0.0000 -0.0000 26.1082 -61.9397 -11.1712
9.0000 15.1551 12.1089 3.3517 -6.8401 5.7730 0.0000 0.0000 0.0000 -15.5677 -6.2644 -15.4888 3.9396 12.0796 36.0142 1.3532 17.1319 -33.8354 0.2189 -3.0120 -8.3122 0.0000 0.0000 0.0000 9.3419 23.9300 -13.2649 -4.2324 -12.4634 37.3915 0.0117 -23.6863 -33.2721 -0.0034 -0.3771 1.0362 -4.7296 -2.5739 -6.4599 3.8826 -3.2306 -0.4126 6.4091 -1.7262 3.6884 -10.0603 -9.9303 -8.1488 19.3893 -13.1976 0.0283 6.6918 -6.1241 3.4183 -0.0000 0.0000 0.0000 -86.4371 2.8059 51.8069 17.5223 -27.5412 -4.3261 -0.0000 0.0000 -14.1627 28.9678 4.8268 2.6669 -7.1250 0.0000 -0.0000 1.9209 35.4874 -0.4492 -0.0000 0.0000 0.0000 81.0549 0.5824 28.3561 -13.2354 21.6311 -2.5394 0.0000 0.0000 10.3993 -10.5470 -33.6825 5.8953 7.1250 -0.0000 -0.0000 26.5504 -62.1490 -11.5067
8.9978 15.1554 12.1123 3.2981 -6.8476 5.6718 0.0000 0.0000 0.0000 -15.5175 -6.3442 -15.3182 3.9471 12.0897 36.0499 1.3837 17.0903 -33.9717 0.2058 -2.9208 -8.0585 0.0000 0.0000 0.0000 9.4743 23.8996 -13.1094 -4.2251 -12.4540 37.3576 0.0166 -23.6950 -33.2545 -0.0032 -0.3646 1.0018 -4.7088 -2.6351 -6.4230 3.9066 -3.3167 -0.3386 6.4133 -1.7733 3.7583 -10.0859 -10.4797 -8.4605 18.4037 -13.9441 0.6519 6.2813 -6.4754 3.6761 0.0000 0.0000 0.0000 -86.4352 2.7163 51.6203 17.5952 -27.6357 -4.3598 -0.0000 0.0000 -14.2547 28.9154 5.3171 2.9303 -7.1250 0.0000 -0.0000 1.8701 36.0435 -0.4119 0.0000 0.0000 0.0000 81.0646 0.7406 28.4933 -13.2004 21.5802 -2.5265 0.0000 0.0000 10.2978 -10.7831 -33.5775 6.0130 7.1250 -0.0000 -0.0000 26.1987 -62.1159 -11.3222
